<svg xmlns="http://www.w3.org/2000/svg" viewBox="0 0 24 24"><path d="M12 .297c-6.63 0-12 5.373-12 12 0 5.303 3.438 9.8 8.205 11.385.6.113.82-.258.82-.577 0-.285-.01-1.04-.015-2.04-3.338.724-4.042-1.61-4.042-1.61C4.42 18.07 3.633 17.7 3.633 17.7c-1.08-.745.084-.73.084-.73 1.19.085 1.815 1.223 1.815 1.223 1.06 1.81 2.809 1.289 3.49.985.108-.76.417-1.288.76-1.58-2.665-.3-5.466-1.332-5.466-5.93 0-1.31.465-2.38 1.235-3.22-.12-.3-.54-1.52.115-3.17 0 0 1-.32 3.3-.12 1.06-.295 2.18-.44 3.3-.44.12 0 .24.01.36.01 1.12.005 2.24.145 3.3.44 2.3-.2 3.3.12 3.3.12.65 1.65.23 2.87.12 3.17.77.84 1.235 1.91 1.235 3.22 0 4.61-2.805 5.625-5.475 5.92.42.36.81 1.096.81 2.22 0 1.606-.015 2.896-.015 3.286 0 .315.21.69.825.57C20.565 22.092 24 17.592 24 12.297c0-6.627-5.373-12-12-12z"/></svg>